HIERARCHY
ROOT newVegas:Hips
{
	OFFSET 0.000000 96.479958 0.000000
	CHANNELS 6 Xposition Yposition Zposition Xrotation Yrotation Zrotation
	JOINT newVegas:Pelvis
	{
		OFFSET 0.000000 0.000000 0.000000
		CHANNELS 3 Xrotation Yrotation Zrotation
		JOINT newVegas:LeftUpLeg
		{
			OFFSET 18.735201 -5.666702 -4.541200
			CHANNELS 3 Xrotation Yrotation Zrotation
			JOINT newVegas:LeftLeg
			{
				OFFSET -0.021200 -31.938179 0.493100
				CHANNELS 3 Xrotation Yrotation Zrotation
				JOINT newVegas:LeftFoot
				{
					OFFSET 0.021200 -31.938179 -4.336299
					CHANNELS 3 Xrotation Yrotation Zrotation
					JOINT newVegas:LeftToeBase
					{
						OFFSET 0.943001 -26.722000 15.023500
						CHANNELS 3 Xrotation Yrotation Zrotation
						End Site
						{
							OFFSET 0.000000 30.670183 0.000000
						}
					}
				}
				JOINT newVegas:Left_PantLeg
				{
					OFFSET 0.663870 -9.044666 -1.108900
					CHANNELS 3 Xrotation Yrotation Zrotation
					End Site
					{
						OFFSET 1.415995 20.635357 0.000000
					}
				}
			}
		}
		JOINT newVegas:RightUpLeg
		{
			OFFSET -18.735201 -5.666702 -4.541200
			CHANNELS 3 Xrotation Yrotation Zrotation
			JOINT newVegas:RightLeg
			{
				OFFSET 0.018946 -31.938133 0.493100
				CHANNELS 3 Xrotation Yrotation Zrotation
				JOINT newVegas:RightFoot
				{
					OFFSET -0.018946 -31.938126 -4.336299
					CHANNELS 3 Xrotation Yrotation Zrotation
					JOINT newVegas:RightToeBase
					{
						OFFSET -0.943001 -26.722004 15.023500
						CHANNELS 3 Xrotation Yrotation Zrotation
						End Site
						{
							OFFSET 0.000000 30.670187 0.000000
						}
					}
				}
				JOINT newVegas:Right_PantLeg
				{
					OFFSET -0.661674 -9.044716 -1.108900
					CHANNELS 3 Xrotation Yrotation Zrotation
					End Site
					{
						OFFSET -1.415958 20.635269 0.000000
					}
				}
			}
		}
	}
	JOINT newVegas:Spine
	{
		OFFSET 0.000000 10.199997 -0.299500
		CHANNELS 3 Xrotation Yrotation Zrotation
		JOINT newVegas:Spine1
		{
			OFFSET 0.000000 11.900002 -1.516600
			CHANNELS 3 Xrotation Yrotation Zrotation
			JOINT newVegas:Spine2
			{
				OFFSET 0.000000 13.600006 -2.842500
				CHANNELS 3 Xrotation Yrotation Zrotation
				JOINT newVegas:Neck
				{
					OFFSET 0.000000 9.624100 -2.890100
					CHANNELS 3 Xrotation Yrotation Zrotation
					JOINT newVegas:Head
					{
						OFFSET 0.000000 14.068802 -1.351900
						CHANNELS 3 Xrotation Yrotation Zrotation
						JOINT newVegas:Hair_Back
						{
							OFFSET 0.000000 3.231903 -17.524799
							CHANNELS 3 Xrotation Yrotation Zrotation
							End Site
							{
								OFFSET 0.000000 19.849884 0.000000
							}
						}
						JOINT newVegas:Hair_Front
						{
							OFFSET 0.000000 31.260406 4.573800
							CHANNELS 3 Xrotation Yrotation Zrotation
							JOINT newVegas:Hair_Front1
							{
								OFFSET 0.000000 2.284103 11.993300
								CHANNELS 3 Xrotation Yrotation Zrotation
								JOINT newVegas:Hair_Front2
								{
									OFFSET 0.000000 2.284103 11.993300
									CHANNELS 3 Xrotation Yrotation Zrotation
									End Site
									{
										OFFSET 0.000000 12.208862 0.000000
									}
								}
							}
						}
						JOINT newVegas:Jowel
						{
							OFFSET 0.000000 -7.458206 6.864100
							CHANNELS 3 Xrotation Yrotation Zrotation
							End Site
							{
								OFFSET 0.000000 19.849884 0.000000
							}
						}
					}
				}
				JOINT newVegas:LeftShoulder
				{
					OFFSET 15.263000 10.923401 -0.547700
					CHANNELS 3 Xrotation Yrotation Zrotation
					JOINT newVegas:LeftArm
					{
						OFFSET 25.438599 -2.830597 -13.032500
						CHANNELS 3 Xrotation Yrotation Zrotation
						JOINT newVegas:LeftForeArm
						{
							OFFSET 29.960503 0.000000 0.000000
							CHANNELS 3 Xrotation Yrotation Zrotation
							JOINT newVegas:LeftHand
							{
								OFFSET 27.849251 0.000000 0.000000
								CHANNELS 3 Xrotation Yrotation Zrotation
								JOINT newVegas:LeftHandThumb1
								{
									OFFSET 4.487587 -3.305161 6.305391
									CHANNELS 3 Xrotation Yrotation Zrotation
									JOINT newVegas:LeftHandThumb2
									{
										OFFSET 5.480453 -3.164139 3.164143
										CHANNELS 3 Xrotation Yrotation Zrotation
										JOINT newVegas:LeftHandThumb3
										{
											OFFSET 5.159721 -2.978973 2.978967
											CHANNELS 3 Xrotation Yrotation Zrotation
											End Site
											{
												OFFSET 2.494507 5.926697 1.738678
											}
										}
									}
								}
								JOINT newVegas:LeftHandIndex1
								{
									OFFSET 18.578728 -0.527832 5.208049
									CHANNELS 3 Xrotation Yrotation Zrotation
									JOINT newVegas:LeftHandIndex2
									{
										OFFSET 3.192009 0.000000 0.000000
										CHANNELS 3 Xrotation Yrotation Zrotation
										JOINT newVegas:LeftHandIndex3
										{
											OFFSET 3.835129 0.000000 0.000000
											CHANNELS 3 Xrotation Yrotation Zrotation
											End Site
											{
												OFFSET -0.034599 3.816971 0.371180
											}
										}
									}
								}
								JOINT newVegas:LeftHandMiddle1
								{
									OFFSET 18.476105 0.000000 0.000000
									CHANNELS 3 Xrotation Yrotation Zrotation
									JOINT newVegas:LeftHandMiddle2
									{
										OFFSET 3.324875 0.000000 0.000000
										CHANNELS 3 Xrotation Yrotation Zrotation
										JOINT newVegas:LeftHandMiddle3
										{
											OFFSET 4.596550 0.000000 0.000000
											CHANNELS 3 Xrotation Yrotation Zrotation
											End Site
											{
												OFFSET 0.057701 4.578827 0.399218
											}
										}
									}
								}
								JOINT newVegas:LeftHandRing1
								{
									OFFSET 17.732719 0.121887 -4.201567
									CHANNELS 3 Xrotation Yrotation Zrotation
									JOINT newVegas:LeftHandRing2
									{
										OFFSET 2.733170 0.000000 0.000000
										CHANNELS 3 Xrotation Yrotation Zrotation
										JOINT newVegas:LeftHandRing3
										{
											OFFSET 3.178268 0.000000 0.000000
											CHANNELS 3 Xrotation Yrotation Zrotation
											End Site
											{
												OFFSET 0.119102 3.170624 0.185394
											}
										}
									}
								}
								JOINT newVegas:LeftHandPinky1
								{
									OFFSET 15.989624 -0.606689 -7.535461
									CHANNELS 3 Xrotation Yrotation Zrotation
									JOINT newVegas:LeftHandPinky2
									{
										OFFSET 2.538986 0.000000 0.000000
										CHANNELS 3 Xrotation Yrotation Zrotation
										JOINT newVegas:LeftHandPinky3
										{
											OFFSET 2.593102 0.000000 0.000000
											CHANNELS 3 Xrotation Yrotation Zrotation
											End Site
											{
												OFFSET -0.150902 2.584198 0.152708
											}
										}
									}
								}
							}
							JOINT newVegas:Left_Sleeve
							{
								OFFSET 0.267448 -0.649796 0.577675
								CHANNELS 3 Xrotation Yrotation Zrotation
								End Site
								{
									OFFSET 0.000000 15.991241 0.000000
								}
							}
							JOINT newVegas:Left_CapeC
							{
								OFFSET 15.715958 -8.608795 -6.935905
								CHANNELS 3 Xrotation Yrotation Zrotation
								JOINT newVegas:Left_CapeC1
								{
									OFFSET 0.000000 -8.688499 0.000000
									CHANNELS 3 Xrotation Yrotation Zrotation
									End Site
									{
										OFFSET 0.000000 8.688499 0.000000
									}
								}
							}
						}
						JOINT newVegas:Left_CapeB
						{
							OFFSET 26.118385 -8.608795 -7.079235
							CHANNELS 3 Xrotation Yrotation Zrotation
							JOINT newVegas:Left_CapeB1
							{
								OFFSET 0.000000 -8.688499 0.000000
								CHANNELS 3 Xrotation Yrotation Zrotation
								End Site
								{
									OFFSET 0.000000 8.688499 0.000000
								}
							}
						}
						JOINT newVegas:Left_CapeA
						{
							OFFSET 5.115639 -8.608795 -10.395809
							CHANNELS 3 Xrotation Yrotation Zrotation
							JOINT newVegas:Left_CapeA1
							{
								OFFSET 0.000000 -8.688499 0.000000
								CHANNELS 3 Xrotation Yrotation Zrotation
								End Site
								{
									OFFSET 0.000000 8.688499 0.000000
								}
							}
						}
					}
				}
				JOINT newVegas:RightShoulder
				{
					OFFSET -15.263000 10.923401 -0.547700
					CHANNELS 3 Xrotation Yrotation Zrotation
					JOINT newVegas:RightArm
					{
						OFFSET -25.438599 -2.830597 -13.032500
						CHANNELS 3 Xrotation Yrotation Zrotation
						JOINT newVegas:RightForeArm
						{
							OFFSET -29.960503 0.000000 0.000000
							CHANNELS 3 Xrotation Yrotation Zrotation
							JOINT newVegas:RightHand
							{
								OFFSET -27.849251 0.000000 0.000000
								CHANNELS 3 Xrotation Yrotation Zrotation
								JOINT newVegas:RightHandThumb1
								{
									OFFSET -4.487587 -3.305161 6.305391
									CHANNELS 3 Xrotation Yrotation Zrotation
									JOINT newVegas:RightHandThumb2
									{
										OFFSET -5.480453 -3.164139 3.164143
										CHANNELS 3 Xrotation Yrotation Zrotation
										JOINT newVegas:RightHandThumb3
										{
											OFFSET -5.159721 -2.978973 2.978967
											CHANNELS 3 Xrotation Yrotation Zrotation
											End Site
											{
												OFFSET -2.494507 5.926697 1.738678
											}
										}
									}
								}
								JOINT newVegas:RightHandIndex1
								{
									OFFSET -18.578728 -0.527832 5.208049
									CHANNELS 3 Xrotation Yrotation Zrotation
									JOINT newVegas:RightHandIndex2
									{
										OFFSET -3.192009 0.000000 0.000000
										CHANNELS 3 Xrotation Yrotation Zrotation
										JOINT newVegas:RightHandIndex3
										{
											OFFSET -3.835129 0.000000 0.000000
											CHANNELS 3 Xrotation Yrotation Zrotation
											End Site
											{
												OFFSET 0.034599 3.816971 0.371180
											}
										}
									}
								}
								JOINT newVegas:RightHandMiddle1
								{
									OFFSET -18.476105 0.000000 0.000000
									CHANNELS 3 Xrotation Yrotation Zrotation
									JOINT newVegas:RightHandMiddle2
									{
										OFFSET -3.324875 0.000000 0.000000
										CHANNELS 3 Xrotation Yrotation Zrotation
										JOINT newVegas:RightHandMiddle3
										{
											OFFSET -4.596550 0.000000 0.000000
											CHANNELS 3 Xrotation Yrotation Zrotation
											End Site
											{
												OFFSET -0.057701 4.578827 0.399218
											}
										}
									}
								}
								JOINT newVegas:RightHandRing1
								{
									OFFSET -17.732719 0.121887 -4.201567
									CHANNELS 3 Xrotation Yrotation Zrotation
									JOINT newVegas:RightHandRing2
									{
										OFFSET -2.733170 0.000000 0.000000
										CHANNELS 3 Xrotation Yrotation Zrotation
										JOINT newVegas:RightHandRing3
										{
											OFFSET -3.178268 0.000000 0.000000
											CHANNELS 3 Xrotation Yrotation Zrotation
											End Site
											{
												OFFSET -0.119102 3.170624 0.185394
											}
										}
									}
								}
								JOINT newVegas:RightHandPinky1
								{
									OFFSET -15.989624 -0.606689 -7.535461
									CHANNELS 3 Xrotation Yrotation Zrotation
									JOINT newVegas:RightHandPinky2
									{
										OFFSET -2.538986 0.000000 0.000000
										CHANNELS 3 Xrotation Yrotation Zrotation
										JOINT newVegas:RightHandPinky3
										{
											OFFSET -2.593102 0.000000 0.000000
											CHANNELS 3 Xrotation Yrotation Zrotation
											End Site
											{
												OFFSET 0.150902 2.584198 0.152708
											}
										}
									}
								}
							}
							JOINT newVegas:Right_CapeC
							{
								OFFSET -15.715958 -8.608795 -6.935905
								CHANNELS 3 Xrotation Yrotation Zrotation
								JOINT newVegas:Right_CapeC1
								{
									OFFSET 0.000000 -8.688499 0.000000
									CHANNELS 3 Xrotation Yrotation Zrotation
									End Site
									{
										OFFSET 0.000000 8.688499 0.000000
									}
								}
							}
							JOINT newVegas:Right_Sleeve
							{
								OFFSET -0.267448 -0.649994 0.577675
								CHANNELS 3 Xrotation Yrotation Zrotation
								End Site
								{
									OFFSET 0.000000 15.991302 0.000000
								}
							}
						}
						JOINT newVegas:Right_CapeA
						{
							OFFSET -5.115540 -8.608795 -10.395824
							CHANNELS 3 Xrotation Yrotation Zrotation
							JOINT newVegas:Right_CapeA1
							{
								OFFSET 0.000000 -8.688499 0.000000
								CHANNELS 3 Xrotation Yrotation Zrotation
								End Site
								{
									OFFSET 0.000000 8.688499 0.000000
								}
							}
						}
						JOINT newVegas:Right_CapeB
						{
							OFFSET -26.118187 -8.608795 -7.079266
							CHANNELS 3 Xrotation Yrotation Zrotation
							JOINT newVegas:Right_CapeB1
							{
								OFFSET 0.000000 -8.688499 0.000000
								CHANNELS 3 Xrotation Yrotation Zrotation
								End Site
								{
									OFFSET 0.000000 8.688499 0.000000
								}
							}
						}
					}
				}
				JOINT newVegas:Left_Collar
				{
					OFFSET 18.625099 8.655502 8.828100
					CHANNELS 3 Xrotation Yrotation Zrotation
					JOINT newVegas:Left_Collar1
					{
						OFFSET 14.783401 10.540405 -1.259500
						CHANNELS 3 Xrotation Yrotation Zrotation
						End Site
						{
							OFFSET 0.000000 18.199875 0.000000
						}
					}
				}
				JOINT newVegas:Collar_Back
				{
					OFFSET 0.000000 15.630707 -20.132601
					CHANNELS 3 Xrotation Yrotation Zrotation
					End Site
					{
						OFFSET 0.000000 22.523010 0.000000
					}
				}
				JOINT newVegas:Left_Peck
				{
					OFFSET 17.239599 -5.132599 25.482599
					CHANNELS 3 Xrotation Yrotation Zrotation
					End Site
					{
						OFFSET 0.000000 22.523010 0.000000
					}
				}
				JOINT newVegas:Right_Peck
				{
					OFFSET -17.239599 -5.132202 25.482599
					CHANNELS 3 Xrotation Yrotation Zrotation
					End Site
					{
						OFFSET 0.000000 22.523010 0.000000
					}
				}
				JOINT newVegas:Right_Collar
				{
					OFFSET -18.625099 8.655792 8.828100
					CHANNELS 3 Xrotation Yrotation Zrotation
					JOINT newVegas:Right_Collar1
					{
						OFFSET -14.783401 10.539993 -1.259500
						CHANNELS 3 Xrotation Yrotation Zrotation
						End Site
						{
							OFFSET 0.000000 18.199631 0.000000
						}
					}
				}
			}
		}
		JOINT newVegas:Belly
		{
			OFFSET 0.000000 -6.540398 9.014299
			CHANNELS 3 Xrotation Yrotation Zrotation
			End Site
			{
				OFFSET 0.000000 11.566666 0.000000
			}
		}
	}
	JOINT newVegas:ElvisFacialAnim_Joint
	{
		OFFSET 1.000000 -95.330101 -8.825800
		CHANNELS 3 Xrotation Yrotation Zrotation
		End Site
		{
			OFFSET 0.000000 35.315800 0.000000
		}
	}
}
MOTION
Frames: 4
Frame Time: 0.033333
-0.253686 55.502647 16.089224 22.972694 14.786120 -8.301895 0.000000 0.000000 -0.000001 -89.925909 -29.832494 42.014109 114.761125 -11.681723 -4.985428 -37.994700 -6.443892 -14.927978 0.000000 0.000000 -0.000001 0.000001 0.000001 0.000003 -94.497470 -2.375147 -17.070347 126.429247 7.994768 -0.693734 -47.940999 -3.402987 -0.856059 -0.000000 0.000000 0.000000 0.000002 0.000000 -0.000000 1.637058 0.637559 -1.163599 7.708301 -2.715921 -2.928551 7.166257 -0.930456 -4.405164 2.253844 6.074014 -4.087497 2.253815 6.073996 -4.087488 0.000003 0.000001 -0.000003 2.253835 6.074008 -4.087497 2.253924 6.074016 -4.087502 -0.000000 0.000001 0.000000 0.000003 0.000001 -0.000003 15.987955 -17.173783 3.705442 -69.126760 -16.069866 -29.462212 41.930466 -17.534564 15.520514 4.453271 -13.858880 -2.074790 40.109804 -15.297342 -0.360625 5.639986 28.098456 11.338871 -0.000001 -0.000001 -0.000008 6.882141 2.840160 -61.140473 8.244859 7.644217 -89.898076 -0.000000 0.000001 0.000000 -2.345614 4.688877 -62.655327 8.759090 9.892843 -87.051642 0.000000 0.000001 0.000000 -9.042602 10.045796 -60.766144 8.524078 9.508773 -66.893240 0.000002 0.000003 0.000001 -17.946826 14.755157 -51.486123 8.857208 8.678377 -84.811750 -0.000001 -0.000003 -0.000001 0.000000 0.000001 -0.000001 0.000000 0.000001 -0.000001 -0.000000 0.000001 -0.000001 0.000002 -0.000001 -0.000000 0.000001 -0.000002 -0.000004 0.000002 -0.000001 -0.000000 0.000001 -0.000003 -0.000001 10.708571 13.577544 21.337646 -21.053860 -13.212870 21.855393 -3.723130 26.387300 0.250489 -4.044905 4.077890 -7.494524 -15.636760 0.024325 2.867086 3.114907 -24.985102 -7.990560 0.000000 -0.000001 0.000001 -0.169055 -1.877925 2.749957 -0.009770 0.612857 8.673463 -0.000001 -0.000001 -0.000004 -13.147027 -5.203384 1.329546 0.158006 -6.984191 26.056260 0.000003 0.000001 0.000000 -7.359862 -11.346682 5.480795 1.459952 -3.167543 15.231674 0.000001 0.000002 -0.000000 -18.840911 -16.493674 5.892136 3.143583 -1.328120 18.156654 -0.000002 -0.000000 0.000001 0.000000 -0.000002 0.000002 -0.000002 -0.000000 -0.000003 0.000000 -0.000002 0.000002 0.000000 -0.000001 -0.000000 -0.000000 -0.000001 0.000001 0.000000 -0.000001 -0.000000 -0.000000 -0.000001 0.000003 0.000004 0.000001 -0.000000 0.000004 0.000001 -0.000000 0.000004 0.000001 -0.000000 0.000004 0.000001 -0.000000 0.000004 0.000001 -0.000000 0.000004 0.000001 -0.000000 0.000004 0.000001 -0.000000 0.000000 0.000000 -0.000000 0.000000 0.000000 -0.000001 
1.039569 54.306190 15.351770 22.925815 15.703674 -9.402624 0.000001 -0.000002 0.000001 -79.854064 -28.940645 52.180709 112.854751 -20.207868 -4.443678 -41.514464 -2.600129 -18.617286 0.000000 -0.000003 -0.000002 -0.000002 -0.000003 -0.000001 -95.092851 -0.212891 -19.422877 127.928678 10.319367 -0.468383 -47.811632 -4.009348 0.285920 -0.000000 0.000000 -0.000000 0.000003 0.000000 -0.000001 1.490572 0.309652 -0.391771 7.710467 -2.685671 -2.624729 7.316837 -1.443279 -3.652523 2.306228 6.093569 -4.099112 2.306215 6.093571 -4.099099 0.000002 0.000001 -0.000000 2.306230 6.093575 -4.099106 2.306251 6.093557 -4.099112 0.000002 -0.000000 0.000001 0.000002 0.000001 0.000003 15.049623 -16.094069 1.914341 -68.680366 -14.913390 -30.184348 42.328697 -15.749767 15.962398 4.563541 -13.286287 -1.384199 40.109804 -15.297342 -0.360629 5.639981 28.098452 11.338873 0.000002 -0.000002 -0.000003 6.882146 2.840156 -61.140473 8.244859 7.644217 -89.898076 -0.000001 -0.000001 -0.000000 -2.345613 4.688876 -62.655327 8.759086 9.892843 -87.051642 0.000001 -0.000000 -0.000000 -9.042607 10.045793 -60.766151 8.524077 9.508777 -66.893240 0.000001 -0.000002 0.000002 -17.946829 14.755155 -51.486126 8.857198 8.678376 -84.811750 0.000000 -0.000005 0.000000 0.000001 0.000000 -0.000000 0.000001 0.000000 -0.000000 0.000001 0.000000 0.000000 -0.000000 0.000003 -0.000008 -0.000000 0.000002 -0.000008 -0.000000 0.000003 -0.000008 -0.000001 0.000003 -0.000008 10.418526 13.469025 21.517090 -20.770397 -13.326736 21.799204 -3.890413 25.810858 0.288358 -3.632406 4.522583 -7.429939 -16.238894 -0.881807 1.968677 3.018421 -24.225522 -7.780041 0.000001 0.000002 -0.000002 -0.163098 -2.122327 1.034406 0.015753 0.793737 6.531160 0.000003 -0.000000 0.000003 -13.767860 -4.853586 -0.898735 -0.255617 -7.667990 24.791886 0.000000 -0.000001 0.000001 -7.286842 -11.095007 2.688363 1.418344 -2.985951 10.596386 0.000001 0.000001 0.000001 -19.599431 -16.159948 3.497579 3.143983 -1.162754 15.491212 -0.000001 0.000003 0.000002 0.000001 0.000002 0.000003 0.000001 0.000002 0.000000 0.000001 0.000001 0.000004 -0.000000 0.000001 0.000001 -0.000001 0.000001 0.000000 -0.000000 0.000001 0.000001 -0.000001 0.000001 0.000000 0.000006 -0.000000 -0.000001 0.000006 -0.000000 -0.000001 0.000006 -0.000000 -0.000001 0.000006 -0.000000 -0.000001 0.000006 -0.000000 -0.000001 0.000006 -0.000000 -0.000001 0.000006 -0.000000 -0.000001 0.000001 0.000001 -0.000000 0.000001 -0.000002 0.000001 
2.502626 53.047531 14.028019 23.211223 16.690073 -10.762786 -0.000002 -0.000001 -0.000000 -73.133445 -26.980839 59.687903 110.371547 -27.166688 -3.334181 -43.284999 -0.445199 -22.221460 -0.000000 0.000003 -0.000000 -0.000002 -0.000002 0.000001 -96.688062 2.775788 -21.958199 129.000676 13.049500 -0.214853 -46.195090 -5.014913 1.884684 -0.000000 0.000000 -0.000000 0.000003 0.000000 -0.000000 1.382055 0.043612 0.469690 7.635430 -2.603324 -2.197104 7.377584 -1.826545 -2.839778 2.328186 6.089289 -4.086654 2.328202 6.089294 -4.086656 0.000005 0.000000 -0.000002 2.328262 6.089260 -4.086655 2.328182 6.089319 -4.086664 -0.000001 0.000001 -0.000000 0.000005 0.000000 -0.000001 14.281247 -15.343532 0.271942 -68.230742 -13.743928 -30.824162 42.494835 -14.320072 16.244883 4.619278 -12.696482 -0.662218 40.109808 -15.297344 -0.360633 5.639982 28.098452 11.338870 0.000004 -0.000003 -0.000006 6.882141 2.840162 -61.140473 8.244861 7.644216 -89.898076 -0.000000 -0.000001 -0.000000 -2.345613 4.688880 -62.655333 8.759088 9.892843 -87.051635 -0.000000 -0.000007 -0.000001 -9.042601 10.045796 -60.766151 8.524079 9.508772 -66.893254 -0.000000 -0.000001 0.000000 -17.946824 14.755157 -51.486123 8.857198 8.678375 -84.811750 -0.000001 -0.000005 0.000001 0.000001 -0.000003 -0.000001 0.000001 -0.000003 -0.000001 0.000000 -0.000002 -0.000001 -0.000001 -0.000003 -0.000000 -0.000001 -0.000004 -0.000001 -0.000001 -0.000003 -0.000000 -0.000001 -0.000005 -0.000001 10.270741 13.066629 21.584496 -19.757299 -12.904416 21.879007 -3.568731 25.251759 0.218634 -3.371554 4.860704 -6.902215 -16.504420 -1.682989 1.354503 2.929400 -23.608240 -7.627247 0.000001 0.000001 -0.000002 -0.157697 -2.237974 -0.377088 0.045793 0.923646 4.800031 -0.000001 0.000001 0.000006 -14.029664 -4.543263 -2.599650 -0.579395 -8.148425 23.774099 -0.000001 0.000000 0.000001 -7.075224 -10.870414 0.521428 1.408133 -2.849393 7.154781 -0.000002 0.000002 0.000004 -19.849722 -15.865952 1.705347 3.157246 -1.043146 13.425520 0.000001 0.000003 0.000003 0.000003 -0.000001 -0.000004 -0.000000 0.000001 0.000003 0.000003 -0.000001 -0.000001 -0.000001 -0.000001 -0.000004 -0.000002 -0.000001 -0.000001 -0.000001 -0.000001 -0.000004 -0.000001 -0.000001 -0.000001 0.000001 0.000000 0.000001 0.000001 0.000000 0.000001 0.000001 0.000000 0.000001 0.000001 0.000000 0.000001 0.000001 0.000000 0.000001 0.000001 0.000000 0.000001 0.000001 0.000000 0.000001 0.000001 -0.000000 0.000001 -0.000002 -0.000001 -0.000000 
3.723468 51.824326 12.310598 23.969574 17.991680 -12.382826 0.000001 0.000001 -0.000001 -71.016707 -26.436959 63.877200 108.790884 -32.044837 -2.173430 -42.899482 0.800457 -24.911259 -0.000000 0.000004 0.000000 -0.000000 0.000000 -0.000000 -98.984146 5.741107 -24.373518 129.693695 15.347295 -0.030479 -43.723897 -6.286009 3.711959 0.000000 -0.000000 0.000000 -0.000002 0.000000 -0.000000 1.343032 -0.242275 1.387674 7.432764 -2.560729 -1.606999 7.290250 -2.153846 -1.942501 2.303475 6.067859 -4.009510 2.303479 6.067867 -4.009511 0.000001 0.000000 -0.000001 2.303478 6.067854 -4.009514 2.303460 6.067872 -4.009510 -0.000002 0.000002 -0.000003 0.000001 0.000000 -0.000000 13.725555 -14.889107 -0.971275 -67.776138 -12.258627 -31.397543 42.563744 -13.176627 16.502208 4.699751 -12.536355 0.146428 40.109798 -15.297341 -0.360624 5.639985 28.098452 11.338872 0.000003 0.000000 0.000001 6.882139 2.840160 -61.140473 8.244858 7.644218 -89.898076 0.000000 -0.000003 -0.000000 -2.345617 4.688879 -62.655333 8.759087 9.892843 -87.051642 -0.000001 -0.000000 0.000000 -9.042605 10.045794 -60.766151 8.524074 9.508774 -66.893247 -0.000001 0.000001 0.000003 -17.946827 14.755155 -51.486126 8.857203 8.678376 -84.811750 -0.000000 -0.000003 0.000000 -0.000000 -0.000001 -0.000003 -0.000000 -0.000001 -0.000003 -0.000000 -0.000001 -0.000003 -0.000003 0.000001 -0.000001 -0.000003 -0.000000 -0.000004 -0.000003 0.000001 -0.000001 -0.000003 -0.000001 -0.000002 10.263219 12.436392 21.724267 -18.214154 -11.844456 21.646746 -2.892091 25.048817 0.150143 -3.254649 4.933046 -5.527763 -16.282840 -2.347851 1.180393 2.854275 -23.202243 -7.554802 0.000002 0.000000 -0.000000 -0.154477 -2.168295 -1.192793 0.066744 0.977356 3.681264 0.000002 -0.000001 0.000001 -13.847246 -4.346983 -3.548334 -0.735120 -8.338296 23.124085 -0.000001 0.000002 0.000002 -6.729706 -10.697432 -0.748941 1.414627 -2.789090 5.429300 0.000002 -0.000001 -0.000001 -19.481482 -15.709725 0.728485 3.170535 -0.990976 12.224973 0.000002 0.000002 -0.000001 -0.000000 -0.000001 -0.000000 -0.000000 -0.000000 0.000003 -0.000000 -0.000001 0.000001 0.000002 -0.000001 -0.000002 0.000001 -0.000001 -0.000001 0.000002 -0.000001 -0.000002 0.000002 -0.000001 -0.000001 0.000003 0.000002 -0.000000 0.000003 0.000002 -0.000000 0.000003 0.000002 -0.000000 0.000003 0.000002 -0.000000 0.000003 0.000002 -0.000000 0.000003 0.000002 -0.000000 0.000003 0.000002 -0.000000 0.000002 -0.000000 -0.000000 0.000001 0.000001 -0.000001 
